<svg height="511pt" viewBox="-62 0 511 511.99993" width="511pt" xmlns="http://www.w3.org/2000/svg"><path d="m182.3125 448.640625c-10.695312-2.757813-17.132812-13.664063-14.375-24.359375l102.890625-399.257812c2.753906-10.699219 13.660156-17.132813 24.355469-14.378907 10.695312 2.757813 17.132812 13.664063 14.375 24.359375l-102.886719 399.257813c-2.757813 10.695312-13.664063 17.132812-24.359375 14.378906zm0 0" fill="#fff"/><path d="m321.777344 502h-231.996094c-30.925781 0-56-25.070312-56-56v-291.996094l-21.367188-36.996094c-5.390624-9.332031 1.34375-21 12.125-21h339.238282c7.734375 0 14 6.265626 14 14v335.992188c0 30.929688-25.070313 56-56 56zm0 0" fill="#fff"/><path d="m377.777344 280.914062c-47.339844 47.339844-124.089844 47.339844-171.429688 0-47.339844-47.335937-124.089844-47.335937-171.425781 0l-1.140625 2.074219v163.011719c0 30.929688 25.074219 56 56 56h231.996094c30.929687 0 56-25.070312 56-56zm0 0" fill="#ffcb7c"/><path d="m182.3125 448.640625c-10.695312-2.757813-17.132812-13.664063-14.375-24.359375l102.890625-399.257812c2.753906-10.699219 13.660156-17.132813 24.355469-14.378907 10.695312 2.757813 17.132812 13.664063 14.375 24.359375l-102.886719 399.257813c-2.757813 10.695312-13.664063 17.132812-24.359375 14.378906zm0 0" fill="#dff6fc"/><path d="m387.777344 280.910156v-170.902344c0-13.234374-10.765625-24-24-24h-57.035156l12.5-48.507812c2-7.761719.859374-15.835938-3.214844-22.734375-4.070313-6.902344-10.589844-11.804687-18.347656-13.804687-7.757813-2-15.832032-.859376-22.734376 3.214843-6.902343 4.074219-11.804687 10.589844-13.800781 18.351563l-16.359375 63.480468h-220.246094c-8.679687 0-16.449218 4.484376-20.785156 12-4.339844 7.515626-4.339844 16.488282 0 24l20.03125 34.675782v168.8125c0 5.523437 4.476563 10 9.996094 10 5.523438 0 10-4.476563 10-10v-39.257813c41.753906-39.9375 107.210938-40.996093 150.222656-3.1875l-35.75 138.734375c-4.128906 16.019532 5.546875 32.40625 21.5625 36.535156 2.496094.644532 5.027344.964844 7.539063.964844 5.296875 0 10.515625-1.414062 15.195312-4.179687 6.902344-4.070313 11.804688-10.589844 13.800781-18.347657l30.511719-118.386718c14.558594 5.316406 29.878907 7.984375 45.199219 7.984375 26.558594 0 53.117188-7.996094 75.714844-23.980469v39.628906h-18.964844c-5.523438 0-10 4.476563-10 10 0 5.519532 4.476562 10 10 10h18.964844v27.996094h-44.933594c-5.519531 0-9.996094 4.480469-9.996094 10 0 5.523438 4.476563 10 9.996094 10h44.933594v28h-18.964844c-5.523438 0-10 4.480469-10 10 0 5.523438 4.476562 10 10 10h17.367188c-5.292969 19.5625-23.1875 34-44.402344 34h-231.996094c-25.363281 0-46-20.636719-46-46v-40.503906c0-5.523438-4.476562-10-10-10-5.519531 0-9.996094 4.476562-9.996094 10v40.503906c0 36.394531 29.605469 66 65.996094 66h231.996094c36.394531 0 66-29.605469 66-66v-165.082031s0-.003907 0-.007813zm-107.269532-253.394531c.667969-2.585937 2.300782-4.757813 4.601563-6.113281 2.304687-1.359375 4.992187-1.738282 7.578125-1.074219 2.585938.667969 4.761719 2.300781 6.117188 4.601563 1.355468 2.300781 1.738281 4.992187 1.070312 7.578124l-13.785156 53.5h-20.652344zm.429688 78.492187-47.367188 183.796876c-6.070312-3.753907-11.851562-8.148438-17.257812-13.179688l43.96875-170.621094h20.65625zm-237.15625 154.257813v-106.261719c0-1.753906-.460938-3.480468-1.339844-5l-21.367187-36.996094c-1.003907-1.742187-.433594-3.253906 0-4 .429687-.746093 1.453125-2 3.464843-2h215.089844l-40.132812 155.742188c-45.855469-34.523438-109.355469-35.019531-155.714844-1.484375zm153.207031 171.503906c-.667969 2.585938-2.300781 4.757813-4.601562 6.113281-2.300781 1.359376-4.992188 1.742188-7.578125 1.070313-5.339844-1.375-8.566406-6.839844-7.1875-12.179687l33.136718-128.582032c5.613282 4.4375 11.507813 8.359375 17.625 11.75zm54.890625-132.875 49.710938-192.886719h62.1875c2.207031 0 4 1.792969 4 4v39.996094h-18.964844c-5.523438 0-10 4.480469-10 10 0 5.523438 4.476562 10 10 10h18.964844v28h-44.933594c-5.519531 0-9.996094 4.476563-9.996094 10 0 5.523438 4.476563 10 9.996094 10h44.933594v28h-18.964844c-5.523438 0-10 4.476563-10 10 0 5.523438 4.476562 10 10 10h18.964844v10.652344c-31.953125 29.730469-77.273438 37.140625-115.898438 22.238281zm0 0"/><path d="m102.105469 126.765625c-16.542969 0-30 13.457031-30 29.996094 0 16.542969 13.457031 30 30 30s30-13.457031 30-30c0-16.539063-13.457031-29.996094-30-29.996094zm0 39.996094c-5.515625 0-10-4.484375-10-10 0-5.511719 4.484375-10 10-10 5.511719 0 10 4.488281 10 10 0 5.515625-4.488281 10-10 10zm0 0"/><path d="m165.851562 183.933594c-1.859374-1.859375-4.441406-2.929688-7.070312-2.929688s-5.210938 1.070313-7.070312 2.929688c-1.859376 1.863281-2.929688 4.429687-2.929688 7.070312s1.070312 5.210938 2.929688 7.070313c1.863281 1.859375 4.441406 2.929687 7.070312 2.929687s5.210938-1.070312 7.070312-2.929687c1.859376-1.859375 2.929688-4.4375 2.929688-7.070313 0-2.628906-1.070312-5.207031-2.929688-7.070312zm0 0"/><path d="m73.453125 205.675781c-2.640625 0-5.210937 1.058594-7.070313 2.929688-1.871093 1.859375-2.929687 4.4375-2.929687 7.070312 0 2.628907 1.058594 5.199219 2.929687 7.070313 1.859376 1.859375 4.429688 2.929687 7.070313 2.929687 2.628906 0 5.210937-1.070312 7.070313-2.929687 1.859374-1.863282 2.929687-4.441406 2.929687-7.070313 0-2.640625-1.070313-5.210937-2.929687-7.070312-1.859376-1.871094-4.441407-2.929688-7.070313-2.929688zm0 0"/><path d="m33.78125 375.492188c2.632812 0 5.210938-1.0625 7.070312-2.929688 1.859376-1.859375 2.929688-4.429688 2.929688-7.070312 0-2.632813-1.066406-5.210938-2.929688-7.070313-1.859374-1.859375-4.4375-2.929687-7.070312-2.929687-2.628906 0-5.207031 1.070312-7.066406 2.929687-1.863282 1.863281-2.929688 4.4375-2.929688 7.070313 0 2.640624 1.066406 5.210937 2.929688 7.070312 1.859375 1.871094 4.4375 2.929688 7.066406 2.929688zm0 0"/></svg>