<?xml version="1.0" encoding="iso-8859-1"?>
<!-- Generator: Adobe Illustrator 19.0.0, SVG Export Plug-In . SVG Version: 6.00 Build 0)  -->
<svg version="1.1" id="Layer_1" xmlns="http://www.w3.org/2000/svg" xmlns:xlink="http://www.w3.org/1999/xlink" x="0px" y="0px"
	 viewBox="0 0 512 512" style="enable-background:new 0 0 512 512;" xml:space="preserve">
<polygon style="fill:#E5E8EC;" points="437.992,9 74.992,9 66.992,228 369.992,222 368.992,109 "/>
<rect x="66.992" y="222" style="fill:#4FC0E8;" width="303" height="276"/>
<path d="M450.727,17.102c1.359-1.789,2.172-4.016,2.172-6.438C452.898,4.773,448.133,0,442.242,0H69.758
	c-5.891,0-10.656,4.773-10.656,10.664v490.664c0,5.906,4.766,10.672,10.656,10.672H368.43c5.891,0,10.672-4.766,10.672-10.672
	l-0.016-394.641l71.641-89.578C450.727,17.094,450.742,17.086,450.727,17.102z M80.43,490.672v-64h53.328
	c5.891,0,10.672-4.781,10.672-10.672s-4.781-10.672-10.672-10.672H80.43v-42.656h53.328c5.891,0,10.672-4.781,10.672-10.672
	s-4.781-10.672-10.672-10.672H80.43v-42.656h53.328c5.891,0,10.672-4.781,10.672-10.672s-4.781-10.672-10.672-10.672H80.43v-42.664
	h277.328v256.008H80.43z M362.414,93.359l-4.672,5.844v7.484l0.016,106.648H80.43v-192h339.609L362.414,93.359z"/>
<g>
</g>
<g>
</g>
<g>
</g>
<g>
</g>
<g>
</g>
<g>
</g>
<g>
</g>
<g>
</g>
<g>
</g>
<g>
</g>
<g>
</g>
<g>
</g>
<g>
</g>
<g>
</g>
<g>
</g>
</svg>
