<svg id="Capa_1" enable-background="new 0 0 512 512" height="512" viewBox="0 0 512 512" width="512" xmlns="http://www.w3.org/2000/svg"><g><g><g><path d="m424.966 72.989h-53.764v76.401l16.512-22.315c8.739-11.81 22.56-18.776 37.251-18.776 7.576 0 13.718 6.142 13.718 13.718v136.214c0 9.573 7.445 17.727 17.012 18.067 10.044.357 18.298-7.68 18.298-17.644v-136.637c0-27.078-21.95-49.028-49.027-49.028z" fill="#d1ecf9"/><g><g><g><g><g><path d="m405.146 24.336c-.238-9.437-8.241-16.836-17.681-16.836h-269.36c-3.876 0-7.625 1.383-10.572 3.899l-18.798 16.049c-2.88 2.459-2.571 7.001.617 9.046l20.528 13.169c6.049 3.881 9.707 10.574 9.707 17.761v261.079c0 19.815 16.064 35.879 35.879 35.879h198.547c19.815 0 35.879-16.064 35.879-35.879v-278.132c0-4.364 2.431-8.327 6.26-10.42 5.484-3 9.164-8.885 8.994-15.615z" fill="#f2f9ff"/><path d="m387.465 7.5h-63.016c9.44 0 17.442 7.399 17.681 16.836.17 6.73-3.51 12.615-8.994 15.615-3.829 2.094-6.26 6.056-6.26 10.42v278.132c0 19.815-16.063 35.879-35.879 35.879h63.016c19.815 0 35.879-16.064 35.879-35.879v-278.132c0-4.364 2.431-8.327 6.26-10.42 5.484-3 9.164-8.884 8.994-15.615-.238-9.437-8.241-16.836-17.681-16.836z" fill="#e2f4ff"/><path d="m119.587 102.757v225.746c0 19.815 16.064 35.879 35.879 35.879h198.547c19.815 0 35.879-16.063 35.879-35.879v-225.746z" fill="#ccf49f"/><path d="m326.876 102.757v225.746c0 19.815-16.062 35.877-35.876 35.879h63.016c19.814-.001 35.876-16.064 35.876-35.879v-225.746z" fill="#b3e59f"/></g></g></g><g><g fill="#c4ced8"><path d="m119.345 504.5h-26.764c-5.959 0-10.79-4.831-10.79-10.79v-44.013h48.343v44.013c0 5.959-4.83 10.79-10.789 10.79z"/><path d="m416.94 504.5h-26.763c-5.959 0-10.79-4.831-10.79-10.79v-44.013h48.343v44.013c0 5.959-4.831 10.79-10.79 10.79z"/></g><path d="m450.901 477.098h-392.281c-11.384 0-20.613-9.229-20.613-20.613v-74.014c0-11.384 9.229-20.613 20.613-20.613h392.281c11.384 0 20.613 9.229 20.613 20.613v74.014c.001 11.385-9.228 20.613-20.613 20.613z" fill="#8e99a3"/><path d="m450.901 361.858h-42.403v94.627c0 11.384-9.229 20.613-20.613 20.613h63.016c11.384 0 20.613-9.229 20.613-20.613v-74.014c.001-11.384-9.228-20.613-20.613-20.613z" fill="#7f8993"/></g></g></g></g><g><path d="m385.737 441.754h-223.192c-3.49 0-6.319-2.829-6.319-6.319v-31.914c0-3.49 2.829-6.319 6.319-6.319h223.192c3.49 0 6.319 2.829 6.319 6.319v31.914c-.001 3.49-2.83 6.319-6.319 6.319z" fill="#b1e4f9"/><path d="m385.737 397.202h-57.031v44.552h57.031c3.49 0 6.319-2.829 6.319-6.319v-31.915c-.001-3.489-2.83-6.318-6.319-6.318z" fill="#90d8f9"/></g></g><g><path d="m293.32 320.089c4.143 0 7.5-3.357 7.5-7.5v-9.391h19.971c4.143 0 7.5-3.357 7.5-7.5s-3.357-7.5-7.5-7.5h-19.971v-30.385h36.009c4.143 0 7.5-3.357 7.5-7.5s-3.357-7.5-7.5-7.5h-36.009v-30.386h19.971c4.143 0 7.5-3.357 7.5-7.5s-3.357-7.5-7.5-7.5h-19.971v-30.385h36.009c4.143 0 7.5-3.357 7.5-7.5s-3.357-7.5-7.5-7.5h-36.009v-4.784c0-4.143-3.357-7.5-7.5-7.5s-7.5 3.357-7.5 7.5v165.33c0 4.143 3.358 7.501 7.5 7.501z"/><path d="m117.337 399.465h-18.505c-4.143 0-7.5 3.357-7.5 7.5s3.357 7.5 7.5 7.5h18.505c4.143 0 7.5-3.357 7.5-7.5s-3.358-7.5-7.5-7.5z"/><path d="m117.337 424.492h-18.505c-4.143 0-7.5 3.357-7.5 7.5s3.357 7.5 7.5 7.5h18.505c4.143 0 7.5-3.357 7.5-7.5s-3.358-7.5-7.5-7.5z"/><path d="m162.545 389.702c-7.619 0-13.818 6.199-13.818 13.819v31.914c0 7.619 6.199 13.818 13.818 13.818h223.191c7.62 0 13.819-6.199 13.819-13.818v-31.914c0-7.62-6.199-13.819-13.819-13.819zm222.011 44.552h-220.829v-29.552h220.829z"/><path d="m455.43 283.793c14.351.5 26.063-10.952 26.063-25.139v-136.637c0-31.169-25.358-56.527-56.527-56.527h-27.574v-15.119c0-1.573.903-3.045 2.358-3.841 22.603-12.359 13.525-46.53-12.284-46.53h-269.36c-5.656 0-11.141 2.022-15.442 5.695l-18.798 16.049c-6.711 5.728-5.994 16.296 1.437 21.063l20.527 13.17c3.918 2.514 6.257 6.793 6.257 11.448v261.078c0 9.577 3.082 18.56 8.496 25.855h-61.963c-15.502 0-28.113 12.611-28.113 28.113v74.014c0 15.502 12.611 28.113 28.113 28.113h15.672v9.111c0 10.085 8.204 18.29 18.289 18.29h26.764c10.085 0 18.29-8.205 18.29-18.29v-9.111h234.252v9.111c0 10.085 8.205 18.29 18.29 18.29h26.764c10.085 0 18.289-8.205 18.289-18.29v-9.111h15.672c15.502 0 28.113-12.611 28.113-28.113v-19.432c0-4.143-3.357-7.5-7.5-7.5s-7.5 3.357-7.5 7.5v19.432c0 7.23-5.883 13.113-13.113 13.113h-392.282c-7.23 0-13.113-5.883-13.113-13.113v-74.014c0-7.23 5.883-13.113 13.113-13.113h392.281c7.23 0 13.113 5.883 13.113 13.113v19.51c0 4.143 3.357 7.5 7.5 7.5s7.5-3.357 7.5-7.5v-19.51c0-15.502-12.611-28.113-28.113-28.113h-62.005c5.413-7.295 8.495-16.278 8.495-25.855v-201.182c7.274-7.348 17.175-11.522 27.573-11.522 3.429 0 6.219 2.789 6.219 6.218v136.215c.001 13.85 10.65 25.079 24.247 25.561zm-68.543 200.806h33.343v9.111c0 1.814-1.476 3.29-3.289 3.29h-26.764c-1.814 0-3.29-1.476-3.29-3.29zm-297.595 0h33.343v9.111c0 1.814-1.476 3.29-3.29 3.29h-26.764c-1.813 0-3.289-1.476-3.289-3.29zm303.261-451.229c-6.268 3.428-10.161 9.942-10.161 17.001v44.887h-180.135c-4.143 0-7.5 3.357-7.5 7.5s3.357 7.5 7.5 7.5h180.135v218.245c0 11.269-6.53 21.268-16.728 25.855h-221.848c-10.199-4.587-16.729-14.587-16.729-25.855v-218.245h40.098c4.143 0 7.5-3.357 7.5-7.5s-3.357-7.5-7.5-7.5h-40.098v-27.833c0-9.789-4.919-18.788-13.157-24.073l-18.425-11.822 16.898-14.427c1.588-1.356 3.613-2.104 5.702-2.104h269.36c10.509.001 13.993 13.502 5.088 18.371zm32.412 67.429c-9.821 0-19.325 2.681-27.573 7.607v-27.917h27.574c22.898 0 41.527 18.629 41.527 41.527v136.638c0 5.702-4.704 10.357-10.531 10.148-5.392-.191-9.778-4.934-9.778-10.571v-136.214c0-11.7-9.519-21.218-21.219-21.218z"/></g></g></svg>