<?xml version="1.0" encoding="iso-8859-1"?>
<!-- Generator: Adobe Illustrator 19.0.0, SVG Export Plug-In . SVG Version: 6.00 Build 0)  -->
<svg version="1.1" id="Capa_1" xmlns="http://www.w3.org/2000/svg" xmlns:xlink="http://www.w3.org/1999/xlink" x="0px" y="0px"
	 viewBox="0 0 512.002 512.002" style="enable-background:new 0 0 512.002 512.002;" xml:space="preserve">
<path style="fill:#B4F5FF;" d="M456.651,182.323l-67.179-45.937l-53.253,77.878c-10.914-6.615-22.709-11.922-35.169-15.701V58.632
	h-90.099v139.931c-12.46,3.779-24.255,9.086-35.169,15.701l-53.253-77.878L55.35,182.323l63.345,92.637
	c-11.282,21.494-17.665,45.962-17.665,71.922c0,85.587,69.382,154.969,154.97,154.969c85.587,0,154.97-69.382,154.97-154.969
	c0-25.96-6.383-50.428-17.665-71.922L456.651,182.323z"/>
<g>
	
		<rect x="10.947" y="119.291" transform="matrix(-0.8255 0.5645 -0.5645 -0.8255 219.4848 214.6142)" style="fill:#8ABCFF;" width="131.227" height="43.902"/>
	<rect x="183.36" y="10.15" style="fill:#8ABCFF;" width="145.28" height="48.601"/>
</g>
<path style="fill:#FFA25D;" d="M341.175,290.709c11.823,17.393,18.739,38.379,18.739,60.95c0,59.932-48.758,108.69-108.69,108.69
	s-108.69-48.758-108.69-108.69c0-22.571,6.916-43.557,18.739-60.95H341.175z"/>
<path d="M251.224,470.35c-65.446,0-118.69-53.244-118.69-118.69c0-23.852,7.078-46.872,20.469-66.572
	c1.861-2.738,4.958-4.378,8.27-4.378h179.901c3.312,0,6.408,1.64,8.27,4.378c13.392,19.698,20.47,42.719,20.47,66.572
	C369.914,417.106,316.67,470.35,251.224,470.35z M166.732,300.709c-9.304,15.359-14.198,32.867-14.198,50.95
	c0,54.418,44.272,98.69,98.69,98.69s98.69-44.272,98.69-98.69c0-18.085-4.894-35.592-14.197-50.95H166.732z"/>
<circle style="fill:#F8E188;" cx="194.89" cy="335.15" r="17.333"/>
<path d="M194.891,362.483c-15.072,0-27.333-12.262-27.333-27.334c0-15.071,12.262-27.333,27.333-27.333
	c15.071,0,27.333,12.262,27.333,27.333C222.224,350.222,209.962,362.483,194.891,362.483z M194.891,327.816
	c-4.043,0-7.333,3.29-7.333,7.333c0,4.044,3.29,7.334,7.333,7.334c4.044,0,7.333-3.29,7.333-7.334
	C202.224,331.107,198.935,327.816,194.891,327.816z"/>
<circle style="fill:#F8E188;" cx="226.56" cy="396.86" r="21.333"/>
<path d="M226.558,428.195c-17.277,0-31.333-14.056-31.333-31.333s14.056-31.333,31.333-31.333s31.334,14.056,31.334,31.333
	C257.892,414.14,243.835,428.195,226.558,428.195z M226.558,385.529c-6.249,0-11.333,5.084-11.333,11.333
	s5.084,11.333,11.333,11.333c6.25,0,11.333-5.084,11.333-11.333C237.891,390.613,232.807,385.529,226.558,385.529z"/>
<path d="M359.911,266.15c-0.65,0-1.311-0.069-1.95-0.199c-0.641-0.131-1.27-0.32-1.87-0.57c-0.61-0.25-1.19-0.561-1.73-0.92
	c-0.55-0.36-1.06-0.78-1.52-1.24c-1.86-1.86-2.93-4.439-2.93-7.07c0-0.649,0.069-1.31,0.199-1.96c0.131-0.63,0.32-1.26,0.57-1.87
	c0.25-0.6,0.561-1.18,0.92-1.72c0.36-0.55,0.78-1.06,1.24-1.52s0.97-0.88,1.52-1.25c0.54-0.36,1.12-0.67,1.73-0.92
	c0.6-0.25,1.229-0.441,1.87-0.57c1.29-0.26,2.62-0.26,3.91,0c0.63,0.13,1.26,0.32,1.87,0.57c0.6,0.25,1.18,0.559,1.72,0.92
	c0.55,0.37,1.06,0.79,1.52,1.25s0.88,0.97,1.25,1.52c0.36,0.54,0.67,1.12,0.92,1.72c0.25,0.61,0.44,1.24,0.57,1.87
	c0.13,0.65,0.19,1.311,0.19,1.96c0,2.631-1.061,5.21-2.931,7.07c-0.46,0.46-0.97,0.88-1.52,1.24c-0.54,0.359-1.12,0.67-1.72,0.92
	c-0.61,0.25-1.24,0.439-1.87,0.57C361.221,266.081,360.561,266.15,359.911,266.15z"/>
<path d="M320.639,266.149H151.668c-5.523,0-10-4.477-10-10c0-5.522,4.477-10,10-10h168.971c5.522,0,10,4.478,10,10
	C330.639,261.672,326.161,266.149,320.639,266.149z"/>
<rect x="369.832" y="119.254" transform="matrix(0.8255 0.5645 -0.5645 0.8255 155.7108 -221.1488)" style="fill:#8ABCFF;" width="131.227" height="43.902"/>
<path d="M507.646,151.897l-108.32-74.069c-4.559-3.117-10.78-1.949-13.899,2.61l-24.78,36.237c-1.497,2.19-2.063,4.884-1.573,7.49
	c0.489,2.606,1.994,4.912,4.184,6.409l12.316,8.422l-42.42,62.035c-7.123-3.775-14.515-7.021-22.104-9.708V68.751h17.589
	c5.522,0,10-4.478,10-10V10.149c0-5.522-4.478-10-10-10H183.363c-5.523,0-10,4.478-10,10v48.602c0,5.522,4.477,10,10,10h17.588
	v122.573c-7.588,2.687-14.98,5.933-22.103,9.708l-42.42-62.036l12.316-8.421c2.189-1.497,3.694-3.803,4.184-6.409
	c0.49-2.606-0.077-5.301-1.573-7.49l-24.779-36.237c-3.117-4.559-9.34-5.726-13.899-2.61L4.357,151.897
	c-4.559,3.117-5.728,9.341-2.61,13.899l24.779,36.238c1.497,2.189,3.803,3.694,6.409,4.184c0.613,0.115,1.23,0.172,1.846,0.172
	c2,0,3.97-0.601,5.645-1.745l12.316-8.422l54.378,79.524c-10.54,22.063-16.088,46.526-16.088,71.136
	c0,90.965,74.005,164.97,164.97,164.97s164.97-74.005,164.97-164.97c0-24.609-5.548-49.073-16.088-71.136l54.379-79.524
	l12.316,8.422c1.675,1.145,3.645,1.745,5.645,1.745c0.615,0,1.232-0.057,1.846-0.172c2.607-0.489,4.912-1.994,6.409-4.184
	l24.779-36.238C513.373,161.237,512.204,155.014,507.646,151.897z M193.363,20.149h125.275v28.602H193.363V20.149z M37.391,182.49
	L23.9,162.762l91.811-62.779l13.49,19.728L37.391,182.49z M385.051,269.316c-2.089,3.056-2.319,7.015-0.6,10.292
	c10.808,20.588,16.52,43.852,16.52,67.274c0,79.937-65.033,144.97-144.97,144.97s-144.97-65.033-144.97-144.97
	c0-23.423,5.712-46.686,16.52-67.274c1.72-3.277,1.489-7.236-0.6-10.292L69.25,184.934l50.669-34.647l47.608,69.623
	c2.997,4.382,8.897,5.657,13.439,2.907c10.315-6.254,21.38-11.194,32.888-14.684c4.215-1.278,7.097-5.165,7.097-9.569V68.751h70.098
	v129.811c0,4.405,2.882,8.291,7.098,9.569c11.509,3.491,22.573,8.432,32.887,14.684c4.544,2.756,10.442,1.478,13.439-2.906
	l47.609-69.623l50.669,34.648L385.051,269.316z M474.612,182.49l-91.811-62.78l13.491-19.728l91.81,62.779L474.612,182.49z"/>
<g>
</g>
<g>
</g>
<g>
</g>
<g>
</g>
<g>
</g>
<g>
</g>
<g>
</g>
<g>
</g>
<g>
</g>
<g>
</g>
<g>
</g>
<g>
</g>
<g>
</g>
<g>
</g>
<g>
</g>
</svg>
