<?xml version="1.0" encoding="iso-8859-1"?>
<!-- Generator: Adobe Illustrator 19.0.0, SVG Export Plug-In . SVG Version: 6.00 Build 0)  -->
<svg version="1.1" id="Layer_1" xmlns="http://www.w3.org/2000/svg" xmlns:xlink="http://www.w3.org/1999/xlink" x="0px" y="0px"
	 viewBox="0 0 512 512" style="enable-background:new 0 0 512 512;" xml:space="preserve">
<rect x="185" y="14" style="fill:#F4F6F9;" width="141" height="33"/>
<polygon style="fill:#E5E8EC;" points="311.344,171.336 311.344,53.336 202.672,53.336 205.336,169.336 175.336,224 130,308 
	200.672,339.328 262.672,376 333.344,379.328 384.672,351.328 408.672,332.672 "/>
<polygon style="fill:#9ED36A;" points="452,399 404.5,341 389.156,347.844 370.313,359.172 310,379.328 251,376 183.742,331.828 
	122,304.5 111.5,320 67.5,397 58,457 99,499 180,502.5 342,502.5 432.25,487 460,450.5 "/>
<path d="M458.484,398.547L320,170.656V62.172c12.422-4.391,21.328-16.25,21.328-30.172c0-17.672-14.328-32-32-32H202.672
	c-17.672,0-32,14.328-32,32c0,13.922,8.906,25.781,21.328,30.172v108.484L53.516,398.547c-6.891,11.313-10.844,24.578-10.844,38.781
	c0,41.234,33.422,74.672,74.656,74.672h277.344c41.234,0,74.656-33.438,74.656-74.672
	C469.328,423.125,465.375,409.859,458.484,398.547z M202.672,21.328h106.656C315.219,21.328,320,26.109,320,32
	c0,5.875-4.781,10.656-10.672,10.656H202.672C196.781,42.656,192,37.875,192,32C192,26.109,196.781,21.328,202.672,21.328z
	 M210.234,181.734l3.094-5.094v-5.984V64h85.344v106.656v5.984l3.094,5.094l91.188,150.047
	c-7.016,7.375-14.984,14.172-23.859,20.172c-18.219,12.344-35.984,18.797-53.516,20.641c-38.781,4.078-76.391-14.422-115.328-41.641
	c-19.156-13.391-39.594-25.313-60.75-32.828L210.234,181.734z M394.672,490.656H117.328C87.922,490.656,64,466.734,64,437.328
	c0-9.797,2.672-19.375,7.75-27.703l56.406-92.828c2.625,0.828,5.266,1.766,7.953,2.797c15.953,6.141,32.938,15.578,51.922,28.844
	c34.156,23.891,79.781,50.625,129.781,45.359c21.625-2.266,42.906-10.406,63.25-24.188c8.438-5.703,16.219-12.078,23.313-19.016
	l35.891,59.047c5.063,8.313,7.734,17.891,7.734,27.688C448,466.734,424.078,490.656,394.672,490.656z"/>
<g>
</g>
<g>
</g>
<g>
</g>
<g>
</g>
<g>
</g>
<g>
</g>
<g>
</g>
<g>
</g>
<g>
</g>
<g>
</g>
<g>
</g>
<g>
</g>
<g>
</g>
<g>
</g>
<g>
</g>
</svg>
